<svg  viewBox="0 0 150 45" style="background-color:#ffffff00" version="1.1" 	xmlns="http://www.w3.org/2000/svg" xmlns:xlink="http://www.w3.org/1999/xlink" xml:space="preserve" 	x="0px" y="0px" width="150px" height="45px" >
	<path d="M 147.9746 29.7612 L 147.9746 29.7524 C 147.9746 29.3418 147.6738 29.1411 147.2158 29.1411 L 146.5313 29.1411 L 146.5313 31.2222 L 146.8706 31.2222 L 146.8706 30.3735 L 147.1714 30.3735 L 147.7271 31.2222 L 148.1021 31.2222 L 147.5083 30.3188 C 147.792 30.2539 147.9746 30.0811 147.9746 29.7612 ZM 146.8706 30.1182 L 146.8706 29.4053 L 147.207 29.4053 C 147.4907 29.4053 147.647 29.5059 147.647 29.7612 L 147.647 29.77 C 147.647 29.9985 147.4995 30.1182 147.207 30.1182 L 146.8706 30.1182 Z" fill="#7a7470"/>
	<path d="M 147.207 28.1997 C 146.0742 28.1997 145.1797 29.1045 145.1797 30.2275 C 145.1797 31.3682 146.0854 32.2363 147.207 32.2363 C 148.3408 32.2363 149.2349 31.3594 149.2349 30.2183 C 149.2349 29.0952 148.3584 28.1997 147.207 28.1997 ZM 147.207 31.9805 C 146.2305 31.9805 145.4629 31.2593 145.4629 30.2275 C 145.4629 29.2046 146.2129 28.4463 147.207 28.4463 C 148.2109 28.4463 148.9521 29.1958 148.9521 30.2183 C 148.9521 31.2412 148.1934 31.9805 147.207 31.9805 Z" fill="#7a7470"/>
	
	<path d="M 96.7041 16.0254 C 95.3574 14.9268 93.6211 14.2891 91.6714 14.2891 C 86.9932 14.2891 83.2363 18.1875 83.2363 23.2559 C 83.2363 25.5952 84.0864 27.7217 85.4336 29.2813 C 86.9575 31.0532 89.3677 32.187 91.9194 32.187 C 93.6563 32.187 95.2861 31.6558 96.7041 30.4507 L 98.2402 31.833 L 101.1348 31.833 L 101.1348 14.6436 L 98.2402 14.6436 L 96.7041 16.0254 ZM 92.4624 27.7202 C 89.9863 27.7202 87.98 25.7139 87.98 23.2383 C 87.98 20.7627 89.9863 18.7559 92.4624 18.7559 C 94.9375 18.7559 96.9443 20.7627 96.9443 23.2383 C 96.9443 25.7139 94.9375 27.7202 92.4624 27.7202 Z" fill="#7a7470"/>
	<path d="M 114.8125 14.2891 C 112.8633 14.2891 111.1265 14.9268 109.7793 16.0254 L 108.2437 14.6436 L 105.3491 14.6436 L 105.3491 40.3394 L 109.957 40.3394 L 109.957 30.6279 C 111.3389 31.6914 112.8276 32.187 114.5645 32.187 C 117.1162 32.187 119.5615 31.0532 121.0859 29.2813 C 122.4326 27.7217 123.2476 25.5952 123.2476 23.2559 C 123.2476 18.1875 119.4907 14.2891 114.8125 14.2891 ZM 114.022 27.7202 C 111.5464 27.7202 109.5396 25.7139 109.5396 23.2383 C 109.5396 20.7627 111.5464 18.7559 114.022 18.7559 C 116.4976 18.7559 118.5039 20.7627 118.5039 23.2383 C 118.5039 25.7139 116.4976 27.7202 114.022 27.7202 Z" fill="#7a7470"/>
	<path d="M 134.8491 14.2891 C 129.6392 14.2891 125.7051 18.2939 125.7051 23.2559 C 125.7051 28.2178 129.6392 32.187 134.8491 32.187 C 140.0591 32.187 143.9932 28.2178 143.9932 23.2559 C 143.9932 18.2939 140.0591 14.2891 134.8491 14.2891 ZM 134.8491 27.7202 C 132.374 27.7202 130.3672 25.7139 130.3672 23.2383 C 130.3672 20.7627 132.374 18.7559 134.8491 18.7559 C 137.3242 18.7559 139.3315 20.7627 139.3315 23.2383 C 139.3315 25.7139 137.3242 27.7202 134.8491 27.7202 Z" fill="#7a7470"/>
	<path d="M 76.2471 14.6436 L 72.4106 20.7197 L 68.5737 14.6436 L 62.8398 14.6436 L 68.2666 23.2383 L 62.8398 31.833 L 68.5737 31.833 L 72.4106 25.7568 L 76.2471 31.833 L 81.981 31.833 L 76.5537 23.2383 L 81.981 14.6436 L 76.2471 14.6436 Z" fill="#7a7470"/>
	<path d="M 42.21 3.4829 C 40.4766 1.7495 38.2046 0.8828 35.9326 0.8828 C 33.6606 0.8828 31.3887 1.7495 29.6553 3.4829 L 22.8506 10.2876 L 22.8506 10.2881 L 16.0459 3.4829 C 14.312 1.7495 12.04 0.8828 9.7686 0.8828 C 7.4966 0.8828 5.2246 1.7495 3.4912 3.4829 C 0.0244 6.9497 0.0244 12.5708 3.4912 16.0371 L 10.2959 22.8423 L 13.4604 19.6777 L 6.6558 12.873 C 5.8242 12.0415 5.3662 10.936 5.3662 9.7603 C 5.3662 8.5845 5.8242 7.479 6.6553 6.6475 C 7.4873 5.8159 8.5928 5.3579 9.7686 5.3579 C 10.9443 5.3579 12.0498 5.8159 12.8813 6.6475 L 22.8506 16.6162 L 32.8198 6.6475 C 33.6514 5.8159 34.7568 5.3579 35.9326 5.3579 C 37.1084 5.3579 38.2139 5.8159 39.0454 6.6475 C 39.877 7.479 40.335 8.5845 40.335 9.7603 C 40.335 10.936 39.877 12.0415 39.0454 12.873 L 22.8506 29.0679 L 26.0146 32.2319 L 42.21 16.0371 C 45.6768 12.5708 45.6768 6.9497 42.21 3.4829 Z" fill="#e63f0c"/>
	<path d="M 22.8506 29.0679 L 16.625 22.8423 L 13.4604 26.0063 L 19.686 32.2319 L 22.8506 29.0679 Z" fill="#e63f0c"/>
	<path d="M 3.4912 42.2012 C 5.2246 43.9346 7.4966 44.8018 9.7686 44.8018 C 12.04 44.8018 14.312 43.9346 16.0459 42.2012 L 22.8506 35.3965 L 22.8506 35.3965 L 29.6553 42.2012 C 31.3887 43.9346 33.6611 44.8018 35.9326 44.8018 C 38.2046 44.8018 40.4766 43.9346 42.21 42.2012 C 45.6768 38.7344 45.6768 33.1133 42.21 29.647 L 35.4048 22.8423 L 32.2402 26.0063 L 39.0454 32.8115 C 39.877 33.6426 40.335 34.748 40.335 35.9243 C 40.335 37.1001 39.877 38.2056 39.0454 39.0366 C 38.2139 39.8682 37.1084 40.3267 35.9326 40.3267 C 34.7568 40.3267 33.6514 39.8682 32.8198 39.0371 L 22.8506 29.0679 L 12.8813 39.0371 C 12.0498 39.8682 10.9443 40.3267 9.7686 40.3267 C 8.5928 40.3267 7.4873 39.8682 6.6553 39.0366 C 5.8242 38.2056 5.3662 37.1001 5.3662 35.9243 C 5.3662 34.748 5.8242 33.6426 6.6558 32.8115 L 22.8506 16.6162 L 19.686 13.4521 L 3.4912 29.647 C 0.0244 33.1133 0.0244 38.7344 3.4912 42.2012 Z" fill="#f48026"/>
	<path d="M 22.8506 16.6162 L 29.0762 22.8423 L 32.2402 19.6777 L 26.0146 13.4521 L 22.8506 16.6162 Z" fill="#f48026"/>
</svg>